# AST/ASF file generated using VICON BodyLanguage
# -----------------------------------------------
:version 1.10
:name VICON
:units
  mass 1.0
  length 0.45
  angle deg
:documentation
   .ast/.asf automatically generated from VICON data using
   VICON BodyBuilder and BodyLanguage model FoxedUp or BRILLIANT.MOD
:root
   order TX TY TZ RX RY RZ
   axis XYZ
   position 0 0 0  
   orientation 0 0 0 
:bonedata
  begin
     id 1 
     name lhipjoint
     direction 0.700308 -0.549349 0.455834 
     length 2.59063 
     axis 0 0 0  XYZ
  end
  begin
     id 2 
     name lfemur
     direction 0.34202 -0.939693 0  
     length 6.31066  
     axis 0 0 20  XYZ
    dof rx ry rz
    limits (-160.0 20.0)
           (-70.0 70.0)
           (-60.0 70.0)
  end
  begin
     id 3 
     name ltibia
     direction 0.34202 -0.939693 0   
     length 7.36093   
     axis 0 0 20   XYZ
    dof rx
    limits (-10.0 170.0)
  end
  begin
     id 4 
     name lfoot
     direction 0.0905332 -0.248738 0.96433   
     length 2.0233   
     axis -90 7.62852e-016 20   XYZ
    dof rx rz
    limits (-45.0 90.0)
           (-70.0 20.0)
  end
  begin
     id 5 
     name ltoes
     direction 1.53573e-011 -4.21855e-011 1   
     length 1.01524   
     axis -90 7.62852e-016 20   XYZ
    dof rx
    limits (-90.0 20.0)
  end
  begin
     id 6 
     name rhipjoint
     direction -0.61416 -0.607328 0.503944   
     length 2.34332  
     axis 0 0 0  XYZ 
  end
  begin
     id 7 
     name rfemur
     direction -0.34202 -0.939693 0   
     length 6.58548   
     axis 0 0 -20   XYZ
    dof rx ry rz
    limits (-160.0 20.0)
           (-70.0 70.0)
           (-70.0 60.0)
  end
  begin
     id 8 
     name rtibia
     direction -0.34202 -0.939693 0   
     length 7.20707   
     axis 0 0 -20   XYZ
    dof rx
    limits (-10.0 170.0)
 end
 begin
     id 9 
     name rfoot
     direction -0.136772 -0.375778 0.916561   
     length 1.92184  
     axis -90 -7.62852e-016 -20   XYZ
    dof rx rz
    limits (-45.0 90.0)
           (-20.0 70.0)
  end
  begin
     id 10 
     name rtoes
     direction -1.53535e-011 -4.21828e-011 1   
     length 0.951089   
     axis -90 -7.62852e-016 -20   XYZ
    dof rx
    limits (-90.0 20.0)
  end
  begin
     id 11 
     name lowerback
     direction -0.0444974 0.988086 -0.147332   
     length 1.9609   
     axis 0 0 0   XYZ
    dof rx ry rz
    limits (-20.0 45.0)
           (-30.0 30.0)
           (-30.0 30.0)
  end
  begin
     id 12 
     name upperback
     direction 0.00613146 0.999513 0.0306081   
     length 1.94944   
     axis 0 0 0   XYZ
    dof rx ry rz
    limits (-20.0 45.0)
           (-30.0 30.0)
           (-30.0 30.0)
  end
  begin
     id 13 
     name thorax
     direction 0.0254621 0.994518 0.101418   
     length 2.0119   
     axis 0 0 0   XYZ
    dof rx ry rz
    limits (-20.0 45.0)
           (-30.0 30.0)
           (-30.0 30.0)
  end
  begin
     id 14 
     name lowerneck
     direction 0.0168698 0.977854 0.208608   
     length 1.6375   
     axis 0 0 0   XYZ
    dof rx ry rz
    limits (-20.0 45.0)
           (-30.0 30.0)
           (-30.0 30.0)
  end
  begin
     id 15 
     name upperneck
     direction -0.0283988 0.989338 -0.142843   
     length 1.6851   
     axis 0 0 0   XYZ
    dof rx ry rz
    limits (-20.0 45.0)
           (-30.0 30.0)
           (-30.0 30.0)
  end
  begin
     id 16
     name head
     direction -0.0129422 0.99741 -0.0707489  
     length 1.69029  
     axis 0 0 0   XYZ
    dof rx ry rz
    limits (-20.0 45.0)
           (-30.0 30.0)
           (-30.0 30.0)
  end
  begin
     id 17 
     name lclavicle
     direction 0.820295 0.564628 -0.0911715  
     length 3.16484  
     axis 0 0 0   XYZ
    dof ry rz
    limits (-20.0 10.0)
           (0.0 20.0)
  end
  begin
     id 18 
     name lhumerus
     direction 1 -4.48969e-011 1.00186e-027   
     length 5.17853   
     axis 180 -30 -90   XYZ
    dof rx ry rz
    limits (-60.0 90.0)
           (-90.0 90.0)
           (-90.0 90.0)
  end
  begin
     id 19
     name lradius
     direction 1 -4.48966e-011 -1.52922e-027   
     length 3.40399   
     axis 180 -30 -90   XYZ
    dof rx
    limits (-10.0 170.0)
  end
  begin
     id 20
     name lwrist
     direction 1 -4.48981e-011 -3.80893e-027   
     length 1.70199   
     axis 1.1049e-015 90 90   XYZ
    dof ry
    limits (-180.0 0.0)
 end
  begin
     id 21 
     name lhand
     direction 1 -4.48957e-011 -7.61786e-027   
     length 0.708964   
     axis 4.86085e-015 90 90   XYZ
    dof rx rz
    limits (-90.0 90.0)
           (-45.0 45.0)
  end
  begin
     id 22 
     name lfingers
     direction 1 -4.48929e-011 -1.52357e-026   
     length 0.571585   
     axis 9.7217e-015 90 90   XYZ
    dof rx
    limits (0.0 90.0)
  end
  begin
     id 23
     name lthumb
     direction 0.707107 -6.34905e-011 0.707107   
     length 0.820685   
     axis -90 45 2.85299e-015   XYZ
    dof rx rz
    limits (-45.0 45.0)
           (-45.0 45.0)
  end
  begin
     id 24 
     name rclavicle
     direction -0.858602 0.463947 -0.218075   
     length 3.35137  
     axis 0 0 0   XYZ 
    dof ry rz
    limits (-10.0 20.0)
           (-20.0 0.0)
  end
  begin
     id 25 
     name rhumerus
     direction -1 -4.48969e-011 -1.98511e-027  
     length 5.42351   
     axis 180 30 90   XYZ
    dof rx ry rz
    limits (-90.0 60.0)
           (-90.0 90.0)
           (-90.0 90.0)
  end
  begin
     id 26 
     name rradius
     direction -1 -4.48961e-011 -2.82624e-027   
     length 3.42066   
     axis 180 30 90   XYZ
    dof rx
    limits (-10.0 170.0)
  end
  begin
     id 27 
     name rwrist
     direction -1 -4.48966e-011 -3.80893e-027   
     length 1.71033   
     axis 1.1049e-015 -90 -90   XYZ
    dof ry
    limits (-180.0 0.0)
  end
  begin
     id 28
     name rhand
     direction -1 -4.48964e-011 -7.61786e-027   
     length 0.743608   
     axis 4.86085e-015 -90 -90   XYZ
    dof rx rz
    limits (-90.0 90.0)
           (-45.0 45.0)
  end
  begin
     id 29
     name rfingers
     direction -1 -4.48961e-011 -1.52357e-026   
     length 0.599516   
     axis 9.7217e-015 -90 -90   XYZ
    dof rx
    limits (0.0 90.0)
  end
  begin
     id 30
     name rthumb
     direction -0.707107 -6.34913e-011 0.707107   
     length 0.860789   
     axis -90 -45 -2.85299e-015   XYZ
    dof rx rz
    limits (-45.0 45.0)
           (-45.0 45.0)
  end
:hierarchy
  begin
    root lhipjoint rhipjoint lowerback
    lhipjoint lfemur
    lfemur ltibia
    ltibia lfoot
    lfoot ltoes
    rhipjoint rfemur
    rfemur rtibia
    rtibia rfoot
    rfoot rtoes
    lowerback upperback
    upperback thorax
    thorax lowerneck lclavicle rclavicle
    lowerneck upperneck
    upperneck head
    lclavicle lhumerus
    lhumerus lradius
    lradius lwrist
    lwrist lhand lthumb
    lhand lfingers
    rclavicle rhumerus
    rhumerus rradius
    rradius rwrist
    rwrist rhand rthumb
    rhand rfingers
  end

#!OML:ASF E:\mmandel\Project 1\Capture day 1\Session 2\Subject.ASF
:FULLY-SPECIFIED
:DEGREES
493
root 4.15658 14.2687 -1.36303 193.045 85.054 163.385
lowerback 36.1553 1.23929 3.67294
upperback 6.17457 3.98238 2.23229
thorax -11.1049 1.99996 -1.20356
lowerneck -22.2177 -0.682238 1.23995
upperneck 10.633 0.0528672 -7.61009
head 6.86501 -0.604581 -2.69536
rclavicle 1.43125e-014 -3.97569e-015
rhumerus 11.3425 -5.82483 -71.4609
rradius 19.8397
rwrist 0.153945
rhand -5.03202 29.9685
rfingers 7.12502
rthumb 20.7626 1.05934
lclavicle 1.43125e-014 -3.97569e-015
lhumerus -4.37206 -36.216 63.4687
lradius 39.4367
lwrist 32.3117
lhand -18.9676 328.256
lfingers 7.12502
lthumb 7.3364 -1.89149
rfemur -65.3973 -21.6857 22.6111
rtibia 81.808
rfoot -36.5719 -10.4861
rtoes -14.7171
lfemur -79.0419 15.0533 -17.9705
ltibia 63.3767
lfoot -8.17311 2.08644
ltoes -10.0736
494
root 4.14386 14.3547 -1.33021 192.769 85.0705 163.426
lowerback 36.1578 1.17369 3.81667
upperback 6.1119 3.9319 2.09307
thorax -11.1579 1.96864 -1.4091
lowerneck -21.9469 -0.722345 1.41222
upperneck 10.657 -0.0744243 -7.51938
head 6.82146 -0.647841 -2.70519
rclavicle 4.13472e-014 1.82882e-014
rhumerus 10.4483 -5.68767 -71.6074
rradius 19.7635
rwrist 0.231547
rhand -5.20271 30.149
rfingers 7.12502
rthumb 20.5986 1.22192
lclavicle 4.13472e-014 1.82882e-014
lhumerus -5.80033 -36.9193 64.3292
lradius 39.6488
lwrist 32.6403
lhand -19.0814 328.288
lfingers 7.12502
lthumb 7.22656 -1.85521
rfemur -64.2082 -21.511 22.5309
rtibia 80.6632
rfoot -37.2066 -9.74183
rtoes -11.7768
lfemur -77.8005 14.8345 -17.5455
ltibia 62.223
lfoot -7.97667 2.42869
ltoes -9.76674
495
root 4.1293 14.4333 -1.2975 192.327 85.1098 163.185
lowerback 35.9762 1.13192 3.82811
upperback 6.0923 3.86276 2.0398
thorax -11.1101 1.93698 -1.43957
lowerneck -21.7027 -0.691623 1.61007
upperneck 10.5719 -0.0667521 -7.71009
head 6.75517 -0.646918 -2.79457
rclavicle 2.38542e-014 1.82882e-014
rhumerus 9.6821 -4.99513 -71.5579
rradius 19.7464
rwrist -0.0795886
rhand -5.52493 30.2397
rfingers 7.12502
rthumb 20.289 1.27946
lclavicle 2.38542e-014 1.82882e-014
lhumerus -7.2112 -37.33 65.3265
lradius 39.8318
lwrist 32.7034
lhand -19.1974 328.507
lfingers 7.12502
lthumb 7.1146 -1.6324
rfemur -63.2227 -21.3625 22.5362
rtibia 79.3434
rfoot -37.6241 -9.26609
rtoes -10.1562
lfemur -76.6688 14.6185 -17.1786
ltibia 60.8887
lfoot -7.61905 2.82663
ltoes -10.163
496
root 4.11187 14.5011 -1.26365 193.596 85.2804 164.604
lowerback 35.6967 1.14166 3.78345
upperback 6.12489 3.84621 2.08962
thorax -10.976 1.93492 -1.34703
lowerneck -21.6229 -0.706646 1.59869
upperneck 10.551 -0.0747362 -7.77025
head 6.73554 -0.654488 -2.81201
rclavicle 2.70347e-014 7.95139e-015
rhumerus 9.06181 -3.76273 -71.3143
rradius 19.8682
rwrist -0.885191
rhand -5.67977 30.0564
rfingers 7.12502
rthumb 20.1402 1.08041
lclavicle 2.70347e-014 7.95139e-015
lhumerus -8.65838 -37.214 66.5312
lradius 39.9331
lwrist 32.4619
lhand -19.2268 328.519
lfingers 7.12502
lthumb 7.08623 -1.61937
rfemur -62.4528 -21.0484 22.8507
rtibia 78.0085
rfoot -37.5281 -9.9075
rtoes -10.9084
lfemur -75.6474 14.5257 -16.6308
ltibia 59.6246
lfoot -7.23988 3.25855
ltoes -9.15052
497
root 4.09471 14.5673 -1.2295 193.518 85.4394 164.638
lowerback 35.402 1.13806 3.63039
upperback 6.10892 3.77191 2.15041
thorax -10.8999 1.90581 -1.16458
lowerneck -21.3783 -0.72897 1.34372
upperneck 10.5399 -0.0539666 -7.64586
head 6.69376 -0.639446 -2.72358
rclavicle -3.18055e-015 -1.27222e-014
rhumerus 8.41758 -2.57753 -71.132
rradius 19.8557
rwrist -1.51798
rhand -5.7705 29.9626
rfingers 7.12502
rthumb 20.053 0.977396
lclavicle -3.18055e-015 -1.27222e-014
lhumerus -10.2755 -36.8192 67.8844
lradius 40.0823
lwrist 32.3874
lhand -19.1391 328.17
lfingers 7.12502
lthumb 7.17092 -1.97189
rfemur -61.751 -20.7699 23.0279
rtibia 76.7164
rfoot -37.3402 -10.5738
rtoes -11.842
lfemur -74.6632 14.4013 -16.2459
ltibia 58.3708
lfoot -6.87085 3.68805
ltoes -8.13918
498
root 4.0764 14.6351 -1.19072 191.922 85.4953 163.113
lowerback 34.9904 1.14919 3.58186
upperback 6.21487 3.72496 2.05422
thorax -10.7399 1.88945 -1.23538
lowerneck -21.5063 -0.810176 1.24533
upperneck 10.7176 -0.166931 -7.39977
head 6.76556 -0.683121 -2.64438
rclavicle -5.40694e-014 -5.1684e-014
rhumerus 7.73589 -2.31521 -71.2547
rradius 19.9166
rwrist -1.68494
rhand -5.71289 29.8711
rfingers 7.12502
rthumb 20.1083 0.891771
lclavicle -5.40694e-014 -5.1684e-014
lhumerus -11.4224 -36.8412 68.8415
lradius 40.1271
lwrist 32.4043
lhand -19.1836 327.769
lfingers 7.12502
lthumb 7.12791 -2.37109
rfemur -61.1146 -20.6122 23.0761
rtibia 75.5211
rfoot -37.3714 -10.8965
rtoes -12.1791
lfemur -73.7456 14.2244 -16.0544
ltibia 57.0895
lfoot -6.46991 4.02959
ltoes -8.18846
499
root 4.06019 14.7046 -1.14763 191.389 85.5577 162.805
lowerback 34.7613 1.11779 3.48138
upperback 6.27713 3.63453 2.03251
thorax -10.5909 1.85712 -1.16202
lowerneck -21.8709 -0.794128 1.11347
upperneck 11.1448 -0.086859 -7.3489
head 6.9685 -0.6608 -2.60869
rclavicle -1.59028e-015 3.02153e-014
rhumerus 7.10667 -1.60859 -71.3208
rradius 20.1943
rwrist -2.08546
rhand -5.56912 29.4708
rfingers 7.12502
rthumb 20.2465 0.505982
lclavicle -1.59028e-015 3.02153e-014
lhumerus -12.6749 -36.4424 69.9268
lradius 40.0287
lwrist 32.0672
lhand -18.9371 327.668
lfingers 7.12502
lthumb 7.36583 -2.48013
rfemur -60.2894 -20.4198 23.196
rtibia 74.3401
rfoot -37.4271 -11.2571
rtoes -12.425
lfemur -72.6073 14.0233 -15.6362
ltibia 55.7786
lfoot -6.06943 4.42973
ltoes -8.04697
